PathFileType	4	(X/Y/Z)	C:\Users\Basilio\Documents\Thesis Gigler\squatting_fais\c3dfiles\047\SLS_pre_front3\markers_experimental.trc
DataRate	CameraRate	NumFrames	NumMarkers	Units	OrigDataRate	OrigDataStartFrame	OrigNumFrames
200.000000	200.000000	4	60	mm	200.000000	837	1340
Frame#	Time	FHD			LBHD			RBHD			C7			T10			CLAV			LSHO			LUUPA			LMUPA			LDUPA			LLEP			LMEP			LRAD			LUL			LRFIN			RSHO			RUPA1			RMUPA			RDUPA			RLEP			RMEP			RRAD			RUL			RUFIN			LASI			RASI			USACR			LSACR			RSACR			LTHI1			LTHI2			LTHI3			LTHI4			LLFC			LMFC			LTIB1			LTIB2			LTIB3			LTIB4			LLMAL			LMMAL			LMT1			LMT2			LMT5			RTHI			RTHI2			RTHI3			RTHI4			RLFC			RMFC			RTIB1			RTIB2			RTIB3			RTIB4			RLMAL			RMMAL			RHEE			RMT1			RMT2			RMT5			
		X1	Y1	Z1	X2	Y2	Z2	X3	Y3	Z3	X4	Y4	Z4	X5	Y5	Z5	X6	Y6	Z6	X7	Y7	Z7	X8	Y8	Z8	X9	Y9	Z9	X10	Y10	Z10	X11	Y11	Z11	X12	Y12	Z12	X13	Y13	Z13	X14	Y14	Z14	X15	Y15	Z15	X16	Y16	Z16	X17	Y17	Z17	X18	Y18	Z18	X19	Y19	Z19	X20	Y20	Z20	X21	Y21	Z21	X22	Y22	Z22	X23	Y23	Z23	X24	Y24	Z24	X25	Y25	Z25	X26	Y26	Z26	X27	Y27	Z27	X28	Y28	Z28	X29	Y29	Z29	X30	Y30	Z30	X31	Y31	Z31	X32	Y32	Z32	X33	Y33	Z33	X34	Y34	Z34	X35	Y35	Z35	X36	Y36	Z36	X37	Y37	Z37	X38	Y38	Z38	X39	Y39	Z39	X40	Y40	Z40	X41	Y41	Z41	X42	Y42	Z42	X43	Y43	Z43	X44	Y44	Z44	X45	Y45	Z45	X46	Y46	Z46	X47	Y47	Z47	X48	Y48	Z48	X49	Y49	Z49	X50	Y50	Z50	X51	Y51	Z51	X52	Y52	Z52	X53	Y53	Z53	X54	Y54	Z54	X55	Y55	Z55	X56	Y56	Z56	X57	Y57	Z57	X58	Y58	Z58	X59	Y59	Z59	X60	Y60	Z60	

838	4.185	-38.91752243041993	1366.80908203125	-1081.58154296875	-218.0862121582032	1350.6103515625	-1116.246704101563	-202.1682739257813	1351.7578125	-968.5327758789065	-275.6964111328126	1200.332641601563	-1042.937133789063	-424.6598205566407	939.8472290039065	-1006.511413574219	-148.1512756347657	1099.84375	-1063.318237304688	-210.6791076660157	1164.399291992188	-1200.055419921875	-138.5928802490235	1086.91552734375	-1333.00048828125	-103.0122756958008	1122.623291015625	-1326.334228515625	-74.12865447998048	1084.21435546875	-1358.878540039063	-10.14798545837403	1094.889770507813	-1378.286010742188	8.996454238891603	1032.117919921875	-1336.738647460938	256.4542236328126	1067.351806640625	-1375.945068359375	243.0548553466797	1086.149780273438	-1449.932861328125	335.3838195800782	1087.971313476563	-1399.37060546875	-172.1416473388672	1171.518676757813	-923.0189208984377	-56.86980056762697	1097.334716796875	-808.4319458007815	-25.22303771972657	1127.470458984375	-832.276794433594	11.69512844085694	1085.503173828125	-808.7269287109377	80.8099822998047	1089.921264648438	-817.635925292969	79.57796478271486	1021.913818359375	-861.9270629882815	340.1868286132813	1053.766479492188	-886.4288330078127	337.4265747070313	1069.798461914063	-813.438903808594	421.2445373535157	1066.633178710938	-875.7439575195315	-332.3490905761719	691.6037597656251	-1085.338134765625	-319.8528747558594	723.9985351562501	-859.9622192382815	-498.4961242675782	796.2684326171877	-977.9843750000002	-515.5396118164064	764.9884643554689	-1002.091796875	-509.3890686035157	767.0013427734376	-947.096374511719	-338.9324035644532	570.9082031250001	-1159.653564453125	-254.9328918457032	562.0572509765626	-1165.269409179688	-230.0749053955079	602.6301879882814	-1152.949584960938	-223.8930053710938	510.7778320312501	-1169.261352539063	-98.7190856933594	407.5976867675782	-1148.815185546875	-57.3931007385254	426.887908935547	-1021.285949707031	-143.5072631835938	269.3190307617188	-1024.154052734375	-173.6943817138672	220.4164428710938	-1089.044921875	-164.2346801757813	218.2152252197266	-1043.26953125	-225.0191802978516	175.0931549072266	-1007.152099609375	-322.8396301269532	114.1938400268555	-1052.541137695313	-298.6719970703126	137.1744384765625	-963.9857177734377	-188.6430969238282	62.60898590087892	-977.3782958984377	-192.1341094970704	57.6435012817383	-1020.424377441406	-237.4380187988282	45.27533721923829	-1066.480224609375	-304.7715454101563	576.2276000976564	-759.6975708007814	-238.4595336914063	575.7145385742189	-766.5404052734376	-221.9550476074219	600.9916381835939	-779.5169677734377	-189.4031982421875	507.8810119628907	-772.7442016601565	-66.22148895263673	431.6888427734376	-800.591735839844	-57.05516433715822	435.7508544921876	-924.875427246094	51.0059280395508	372.5350952148438	-827.3489379882815	76.07512664794923	275.5341796875001	-782.4108886718752	102.6324920654297	305.8665161132813	-805.3920898437502	140.0708465576172	278.4194335937501	-841.510681152344	212.3619689941407	134.6985015869141	-807.714050292969	210.3103179931641	154.9067077636719	-898.1047973632815	185.1578674316407	67.46717834472658	-851.1065673828127	355.5535583496094	179.0342712402344	-901.9180908203127	360.5986328125001	191.6692810058594	-858.6442871093752	346.6708984375001	149.0883178710938	-796.4478149414065	
839	4.19	-38.93515396118165	1366.937255859375	-1081.557983398438	-218.0030364990235	1350.6767578125	-1116.240478515625	-202.1515350341797	1351.821533203125	-968.6461181640627	-275.6336059570313	1200.37939453125	-1042.984985351563	-424.5620727539064	939.9528808593752	-1006.470703125	-147.9541778564453	1099.943969726563	-1063.39306640625	-210.7227783203126	1164.491821289063	-1200.0576171875	-138.5940093994141	1086.986328125	-1333.035400390625	-103.0607528686524	1122.67138671875	-1326.466186523438	-74.10684204101564	1084.251586914063	-1358.9794921875	-10.97053909301758	1095.386840820313	-1378.213989257813	9.074813842773439	1031.976684570313	-1336.834350585938	256.2387695312501	1067.361328125	-1375.995727539063	243.0284576416016	1086.165771484375	-1450.112182617188	335.5692138671876	1087.947509765625	-1399.581176757813	-172.0869445800782	1171.574096679688	-923.0811157226565	-56.82431411743165	1097.4130859375	-808.4846801757815	-25.20588111877442	1127.484252929688	-832.2487792968752	11.69889545440674	1085.548217773438	-808.7550048828127	80.75988006591798	1090.050170898438	-817.6417236328127	79.70375061035158	1021.972351074219	-862.026062011719	340.2092285156251	1053.738159179688	-886.553161621094	337.4703674316407	1069.781005859375	-813.5122070312502	421.2328491210939	1066.621459960938	-875.8316650390627	-332.4053955078126	691.4039916992189	-1085.099487304688	-319.8489074707032	724.0051269531251	-859.704284667969	-498.4602966308595	796.3504028320315	-977.914733886719	-515.5819702148439	765.1805419921876	-1001.937133789063	-509.3182983398439	767.1554565429689	-946.9807128906252	-338.4722595214844	570.7789306640626	-1159.667602539063	-255.0873565673829	562.1705322265626	-1165.264404296875	-230.2148895263672	602.7160644531251	-1152.917358398438	-224.0675048828126	510.917205810547	-1169.345336914063	-98.76840972900393	407.5565185546876	-1148.93994140625	-57.47947692871095	426.9636230468751	-1021.350524902344	-143.5406494140625	269.3289794921876	-1024.302856445313	-173.859603881836	220.3311614990235	-1089.051025390625	-164.2701110839844	218.1737365722657	-1043.3896484375	-225.0647277832032	175.120590209961	-1007.188232421875	-322.8463745117188	114.1725158691407	-1052.529418945313	-298.7185668945313	137.1829986572266	-964.0036621093752	-188.6642608642578	62.59267425537111	-977.4018554687502	-192.1099395751954	57.60410690307619	-1020.428649902344	-237.2512512207032	44.92772293090821	-1066.547729492188	-304.6918945312501	576.3129272460939	-759.6361083984376	-238.3341522216797	575.8305664062501	-766.6212768554689	-221.9712371826172	601.0126953125001	-779.4597167968752	-189.4092559814453	507.8643798828126	-772.740173339844	-66.27964782714845	431.5859375000001	-800.7137451171877	-57.10665893554689	435.7174377441407	-924.9156494140627	51.01773071289064	372.4999084472657	-827.413269042969	75.92685699462892	275.4653015136719	-782.4714355468752	102.581283569336	305.7860412597657	-805.3752441406252	140.2061767578125	278.2874755859376	-841.4924316406252	212.2048339843751	134.5838928222657	-807.722106933594	210.1917419433594	154.8026885986328	-898.0803222656252	184.9513549804688	67.36042785644533	-851.0730590820315	355.5653381347657	178.9100341796875	-901.9661254882815	360.5513916015626	191.5967102050782	-858.724548339844	346.7057189941407	148.9068450927735	-796.5933227539065	
840	4.195	-38.79115676879884	1367.339111328125	-1081.5	-217.9515533447266	1350.805419921875	-1116.319702148438	-202.1740875244141	1351.952392578125	-968.7434082031252	-275.6076660156251	1200.470336914063	-1043.022216796875	-424.5636596679689	940.081726074219	-1006.489868164063	-147.8508911132813	1100.033935546875	-1063.448364257813	-210.4944763183594	1164.5703125	-1200.11279296875	-138.6088256835938	1087.067504882813	-1333.110473632813	-103.0559768676758	1122.755981445313	-1326.466186523438	-73.99527740478517	1084.3515625	-1359.050537109375	-9.951020240783693	1094.978149414063	-1378.52197265625	9.037788391113283	1032.297119140625	-1336.976806640625	256.2316894531251	1067.472778320313	-1376.191528320313	243.0278015136719	1086.230346679688	-1450.30712890625	335.3737792968751	1088.024780273438	-1399.739013671875	-172.0635223388672	1171.638549804688	-923.1279296875002	-56.77852630615236	1097.465942382813	-808.4923095703127	-25.18327331542969	1127.617065429688	-832.3352050781252	11.73441028594971	1085.688598632813	-808.7783813476565	80.85086822509767	1090.118530273438	-817.6297607421877	79.74337005615236	1022.052673339844	-862.020446777344	340.2431335449219	1053.724975585938	-886.638366699219	337.5226135253907	1069.84814453125	-813.6434326171877	421.2335510253907	1066.603637695313	-875.9254150390627	-332.5209960937501	691.4385986328126	-1085.239501953125	-319.5715332031251	724.1082153320314	-859.9112548828127	-498.3092651367189	796.5886230468752	-977.818054199219	-515.3814697265626	765.3559570312501	-1001.835510253906	-509.268768310547	767.4290771484376	-946.8046875000002	-339.1499328613282	571.1929931640626	-1159.692138671875	-255.1735992431641	562.3142700195314	-1165.370361328125	-230.229232788086	602.8446044921876	-1153.055786132813	-224.1512603759766	511.0488281250001	-1169.422607421875	-98.8783874511719	407.6295166015626	-1149.023193359375	-57.64217376708986	426.974090576172	-1021.483215332031	-143.5533447265625	269.3256835937501	-1024.357421875	-173.9014587402344	220.3292541503907	-1089.14111328125	-164.2598571777344	218.1890563964844	-1043.42138671875	-224.9859619140626	175.1481475830078	-1007.257690429688	-323.2442626953126	114.2612915039063	-1052.5166015625	-298.7795104980469	137.1653594970703	-963.9814453125002	-188.6716918945313	62.60071945190431	-977.4044189453127	-192.1103820800782	57.6051368713379	-1020.428649902344	-237.3111572265626	44.87480545043946	-1066.568481445313	-304.6905517578126	576.4309082031251	-759.6277465820314	-238.3442382812501	575.8461303710939	-766.6959838867189	-221.8818511962891	601.0620117187501	-779.642517089844	-189.3557739257813	507.9562988281251	-772.7329101562502	-66.24947357177736	431.672821044922	-800.7229614257815	-57.1119842529297	435.7136840820314	-924.9200439453127	51.0100440979004	372.4967041015626	-827.4232177734377	75.8881072998047	275.4472961425782	-782.5147705078127	102.5295944213867	305.7035217285157	-805.8338623046877	139.9803314208985	278.3129882812501	-841.4848632812502	211.9742889404297	134.4906768798828	-807.5322265625002	209.9972076416016	154.6884307861328	-898.0690917968752	184.7250061035157	67.26908111572267	-850.971862792969	355.5187683105469	178.7987823486328	-902.005798339844	360.5152282714844	191.4831848144532	-859.1765136718752	346.6240539550782	148.859130859375	-796.5991210937502	
841	4.2	-38.81427764892579	1367.199829101563	-1081.661254882813	-217.8507080078126	1350.8642578125	-1116.384033203125	-202.0623321533204	1352.179565429688	-968.8480224609377	-275.5509033203126	1200.619750976563	-1043.077270507813	-424.4647827148439	940.2619628906252	-1006.474609375	-147.6779327392578	1100.154052734375	-1063.552612304688	-210.5404357910157	1164.771606445313	-1200.122192382813	-137.6034545898438	1086.69384765625	-1333.403564453125	-102.9925231933594	1122.8193359375	-1326.589599609375	-73.95767211914064	1084.42578125	-1359.149780273438	-9.931930541992189	1095.081420898438	-1378.584106445313	8.977844238281252	1032.5263671875	-1337.176147460938	256.0923767089844	1067.512084960938	-1376.34765625	242.9866943359376	1086.296630859375	-1450.422607421875	335.5412902832032	1088.180541992188	-1399.923583984375	-172.0209197998047	1171.740844726563	-923.2336425781252	-56.70790100097658	1097.703491210938	-808.6931152343752	-25.07480049133301	1127.767944335938	-832.505310058594	11.89686012268067	1085.818359375	-808.8958129882815	80.92477416992189	1090.234985351563	-817.6260986328127	79.79771423339845	1022.367004394531	-862.0444946289065	340.2386169433594	1053.759765625	-886.6758422851565	337.4933166503907	1069.887451171875	-813.637878417969	421.2832946777345	1066.6328125	-876.009216308594	-332.4994201660157	691.8382568359376	-1085.329956054688	-319.4772033691407	724.1770019531251	-859.9356689453127	-498.2413330078126	796.8323364257815	-977.745788574219	-515.3904418945314	765.6401977539064	-1001.700805664063	-509.2251281738282	767.5544433593751	-946.784118652344	-339.2826538085938	571.3619384765626	-1159.700317382813	-255.2956085205079	562.4180908203126	-1165.38134765625	-230.3996734619141	603.0072631835939	-1153.10107421875	-224.3057250976563	511.1112365722657	-1169.470581054688	-99.00834655761722	407.6492614746095	-1149.148559570313	-57.54614257812501	427.098358154297	-1021.662719726563	-143.5906219482422	269.3512878417969	-1024.519287109375	-173.9593200683594	220.3501739501954	-1089.226928710938	-164.3049926757813	218.208236694336	-1043.522583007813	-224.9821472167969	175.1292114257813	-1007.315856933594	-322.8677673339844	114.1304244995117	-1052.581909179688	-298.7195434570313	137.1560363769532	-963.9185180664065	-188.6425933837891	62.60643768310548	-977.387634277344	-192.1139068603516	57.5496063232422	-1020.429626464844	-237.5179138183594	45.23712539672852	-1066.491088867188	-304.6878662109376	576.5527954101564	-759.6314086914064	-238.3896026611329	575.9105834960939	-766.5948486328126	-221.9612426757813	601.1114501953126	-779.6006469726565	-189.3380737304688	508.0425109863282	-772.6992797851565	-66.28948974609376	431.8099060058595	-800.6358642578127	-57.12207412719728	435.7690734863282	-924.9165649414065	50.97631835937501	372.5292358398438	-827.3538818359377	75.76541137695314	275.5562438964844	-782.5162353515627	102.4547882080078	305.7095642089844	-805.9156494140627	139.9458923339844	278.2847900390626	-841.5591430664065	211.9167480468751	134.4761505126953	-807.5554199218752	209.9502563476563	154.7765045166016	-898.0835571289065	184.5107116699219	67.2791213989258	-850.970886230469	355.5353393554688	178.6299743652344	-902.0463867187502	360.4230041503907	191.4138641357422	-859.2190551757815	346.4298706054688	148.7622528076172	-796.5266113281252	
